<svg version="1" xmlns="http://www.w3.org/2000/svg" width="1066.667" height="1066.667" viewBox="0 0 800.000000 800.000000"><path d="M379 21c-74.6 4.4-145.3 29.9-204.5 73.7-13.7 10.1-30 24.1-39.5 33.7l-6.4 6.6h542.8l-7.4-7.5c-28.5-28.8-70.3-57-111-74.9-53.8-23.7-116.1-35-174-31.6zM107.8 157.7c-66.9 80.4-97.7 187-84.3 291 10.7 82 47 156.9 104.9 216.2C189.2 727 264.6 764.8 351 776.5c9.8 1.3 41.1 3.6 41.7 3.1.4-.3-275.8-629-276.7-629.9-.4-.5-4.1 3.1-8.2 8zM549.8 462.3c-73.6 172.2-134.1 314.1-134.4 315.1-.7 1.8-.3 1.9 11 1.3 63.8-3.7 130.8-26.8 186.1-64.1 34.8-23.5 71.6-59.2 95.5-92.6 60.7-84.9 83.8-187.9 65.4-291-9.3-52.1-32.4-106.6-63.9-150.7-9.3-13-24.1-31.3-25.3-31.3-.4 0-60.9 141-134.4 313.3zM229.7 176.6c.3.8 45 107 99.2 235.9l98.7 234.3 99.9-235.2c54.9-129.3 100-235.4 100.2-235.9.2-.4-89.4-.7-199.1-.7-180.6 0-199.5.1-198.9 1.6z"/></svg>